<?xml version="1.0" encoding="UTF-8" standalone="no"?><!-- Generator: Gravit.io --><svg xmlns="http://www.w3.org/2000/svg" xmlns:xlink="http://www.w3.org/1999/xlink" style="isolation:isolate" viewBox="79.1913 390.4367 453.6175 347.4428" width="453.6175pt" height="347.4428pt"><g><g><path d=" M 442.749 677.455 L 442.749 677.455 L 442.749 677.455 Q 442.821 680.458 441.343 682.09 L 441.343 682.09 L 441.343 682.09 Q 439.866 683.723 437.01 683.791 L 437.01 683.791 L 437.01 683.791 Q 434.213 683.859 432.225 682.808 L 432.225 682.808 L 432.13 678.868 L 432.13 678.868 Q 434.569 680.377 436.576 680.329 L 436.576 680.329 L 436.576 680.329 Q 437.718 680.302 438.281 679.658 L 438.281 679.658 L 438.281 679.658 Q 438.844 679.015 438.818 677.931 L 438.818 677.931 L 438.818 677.931 Q 438.793 676.862 438.083 675.992 L 438.083 675.992 L 438.083 675.992 Q 437.374 675.123 435.766 674.077 L 435.766 674.077 L 435.766 674.077 Q 434.367 673.159 433.635 672.304 L 433.635 672.304 L 433.635 672.304 Q 432.904 671.45 432.49 670.376 L 432.49 670.376 L 432.49 670.376 Q 432.076 669.301 432.041 667.866 L 432.041 667.866 L 432.041 667.866 Q 431.975 665.113 433.467 663.465 L 433.467 663.465 L 433.467 663.465 Q 434.958 661.818 437.536 661.756 L 437.536 661.756 L 437.536 661.756 Q 439.996 661.697 442.299 663.019 L 442.299 663.019 L 441.058 666.243 L 441.058 666.243 Q 440.345 665.85 439.568 665.546 L 439.568 665.546 L 439.568 665.546 Q 438.792 665.242 437.913 665.263 L 437.913 665.263 L 437.913 665.263 Q 436.947 665.287 436.442 665.936 L 436.442 665.936 L 436.442 665.936 Q 435.938 666.586 435.964 667.684 L 435.964 667.684 L 435.964 667.684 Q 435.99 668.768 436.632 669.558 L 436.632 669.558 L 436.632 669.558 Q 437.273 670.349 438.85 671.336 L 438.85 671.336 L 438.85 671.336 Q 440.978 672.692 441.841 674.136 L 441.841 674.136 L 441.841 674.136 Q 442.704 675.581 442.749 677.455 Z  M 456.147 683.399 L 453.291 683.383 L 452.527 681.152 L 452.439 681.151 L 452.439 681.151 Q 451.567 682.582 450.641 683.119 L 450.641 683.119 L 450.641 683.119 Q 449.715 683.656 448.309 683.648 L 448.309 683.648 L 448.309 683.648 Q 446.507 683.638 445.482 682.284 L 445.482 682.284 L 445.482 682.284 Q 444.457 680.931 444.47 678.528 L 444.47 678.528 L 444.47 678.528 Q 444.485 675.95 445.905 674.706 L 445.905 674.706 L 445.905 674.706 Q 447.326 673.461 450.139 673.345 L 450.139 673.345 L 452.308 673.27 L 452.314 672.098 L 452.314 672.098 Q 452.327 669.813 450.35 669.802 L 450.35 669.802 L 450.35 669.802 Q 448.885 669.793 446.974 670.925 L 446.974 670.925 L 445.642 668.222 L 445.642 668.222 Q 448.082 666.698 450.938 666.714 L 450.938 666.714 L 450.938 666.714 Q 453.531 666.729 454.878 668.223 L 454.878 668.223 L 454.878 668.223 Q 456.224 669.717 456.209 672.442 L 456.209 672.442 L 456.147 683.399 L 456.147 683.399 Z  M 449.923 680.61 L 449.923 680.61 L 449.923 680.61 Q 450.992 680.616 451.635 679.66 L 451.635 679.66 L 451.635 679.66 Q 452.277 678.704 452.286 677.108 L 452.286 677.108 L 452.294 675.731 L 451.092 675.782 L 451.092 675.782 Q 449.759 675.848 449.133 676.533 L 449.133 676.533 L 449.133 676.533 Q 448.506 677.218 448.498 678.58 L 448.498 678.58 L 448.498 678.58 Q 448.487 680.602 449.923 680.61 Z  M 467.083 667.493 L 466.98 670.582 L 464.287 670.493 L 463.847 683.713 L 459.953 683.583 L 460.392 670.363 L 458.504 670.3 L 458.568 668.353 L 460.496 667.245 L 460.537 666.015 L 460.537 666.015 Q 460.628 663.292 461.799 662.004 L 461.799 662.004 L 461.799 662.004 Q 462.97 660.717 465.474 660.8 L 465.474 660.8 L 465.474 660.8 Q 467.055 660.853 468.395 661.557 L 468.395 661.557 L 467.271 664.495 L 467.271 664.495 Q 466.551 664.119 465.789 664.094 L 465.789 664.094 L 465.789 664.094 Q 465.116 664.071 464.791 664.588 L 464.791 664.588 L 464.791 664.588 Q 464.466 665.105 464.429 666.203 L 464.429 666.203 L 464.389 667.403 L 467.083 667.493 L 467.083 667.493 Z  M 474.245 684.526 L 474.245 684.526 L 474.245 684.526 Q 471.189 684.342 469.558 682.064 L 469.558 682.064 L 469.558 682.064 Q 467.927 679.787 468.166 675.809 L 468.166 675.809 L 468.166 675.809 Q 468.409 671.774 470.14 669.603 L 470.14 669.603 L 470.14 669.603 Q 471.87 667.433 474.721 667.605 L 474.721 667.605 L 474.721 667.605 Q 477.382 667.765 478.801 669.795 L 478.801 669.795 L 478.801 669.795 Q 480.22 671.825 480.009 675.319 L 480.009 675.319 L 479.884 677.396 L 472.061 676.924 L 472.061 676.924 Q 471.974 679.106 472.758 680.217 L 472.758 680.217 L 472.758 680.217 Q 473.543 681.328 475.034 681.418 L 475.034 681.418 L 475.034 681.418 Q 476.935 681.532 478.995 680.468 L 478.995 680.468 L 478.802 683.67 L 478.802 683.67 Q 476.862 684.683 474.245 684.526 Z  M 474.511 670.6 L 474.511 670.6 L 474.511 670.6 Q 473.678 670.55 473.084 671.402 L 473.084 671.402 L 473.084 671.402 Q 472.489 672.254 472.29 674.106 L 472.29 674.106 L 476.238 674.344 L 476.238 674.344 Q 476.316 672.558 475.86 671.606 L 475.86 671.606 L 475.86 671.606 Q 475.403 670.654 474.511 670.6 Z  M 487.958 682.37 L 487.958 682.37 L 487.958 682.37 Q 488.775 682.451 489.763 682.137 L 489.763 682.137 L 489.462 685.169 L 489.462 685.169 Q 488.449 685.731 486.554 685.543 L 486.554 685.543 L 486.554 685.543 Q 484.44 685.333 483.545 683.97 L 483.545 683.97 L 483.545 683.97 Q 482.65 682.608 482.9 680.086 L 482.9 680.086 L 483.735 671.676 L 482.161 671.519 L 482.333 669.785 L 484.499 668.587 L 485.831 665.245 L 488.309 665.491 L 487.962 668.989 L 490.907 669.282 L 490.601 672.357 L 487.657 672.065 L 486.809 680.607 L 486.809 680.607 Q 486.646 682.24 487.958 682.37 Z  M 494.833 686.305 L 492.11 669.249 L 496.121 669.754 L 497.207 679.177 L 497.207 679.177 Q 497.388 680.44 497.315 682.661 L 497.315 682.661 L 497.402 682.672 L 497.402 682.672 Q 497.46 682.325 497.689 681.445 L 497.689 681.445 L 497.689 681.445 Q 497.918 680.566 498.055 680.067 L 498.055 680.067 L 498.055 680.067 Q 498.192 679.567 501.309 670.408 L 501.309 670.408 L 505.379 670.92 L 498.556 687.689 L 498.556 687.689 Q 497.31 690.78 495.739 692 L 495.739 692 L 495.739 692 Q 494.168 693.219 491.843 692.926 L 491.843 692.926 L 491.843 692.926 Q 490.695 692.782 489.825 692.421 L 489.825 692.421 L 490.233 689.18 L 490.233 689.18 Q 490.807 689.43 491.548 689.523 L 491.548 689.523 L 491.548 689.523 Q 493.496 689.768 494.429 687.287 L 494.429 687.287 L 494.833 686.305 L 494.833 686.305 Z  M 404.902 667.444 L 406.623 685.277 L 402.672 685.658 L 400.951 667.826 L 396.868 668.22 L 396.532 664.735 L 408.648 663.566 L 408.985 667.05 L 404.902 667.444 L 404.902 667.444 Z  M 423.214 675.799 L 423.214 675.799 L 423.214 675.799 Q 423.493 679.803 421.954 682.15 L 421.954 682.15 L 421.954 682.15 Q 420.414 684.497 417.463 684.703 L 417.463 684.703 L 417.463 684.703 Q 415.592 684.834 414.089 683.911 L 414.089 683.911 L 414.089 683.911 Q 412.585 682.988 411.677 681.12 L 411.677 681.12 L 411.677 681.12 Q 410.768 679.253 410.588 676.681 L 410.588 676.681 L 410.588 676.681 Q 410.312 672.721 411.837 670.375 L 411.837 670.375 L 411.837 670.375 Q 413.362 668.029 416.343 667.821 L 416.343 667.821 L 416.343 667.821 Q 419.221 667.62 421.082 669.774 L 421.082 669.774 L 421.082 669.774 Q 422.943 671.927 423.214 675.799 Z  M 414.563 676.403 L 414.563 676.403 L 414.563 676.403 Q 414.741 678.946 415.387 680.208 L 415.387 680.208 L 415.387 680.208 Q 416.033 681.47 417.26 681.384 L 417.26 681.384 L 417.26 681.384 Q 419.598 681.221 419.239 676.077 L 419.239 676.077 L 419.239 676.077 Q 419.061 673.52 418.41 672.295 L 418.41 672.295 L 418.41 672.295 Q 417.759 671.07 416.546 671.155 L 416.546 671.155 L 416.546 671.155 Q 415.318 671.241 414.851 672.543 L 414.851 672.543 L 414.851 672.543 Q 414.384 673.846 414.563 676.403 Z  M 314.027 701.134 L 310.139 702.069 L 307.678 697.102 L 302.252 698.407 L 302.32 703.951 L 298.446 704.883 L 298.572 682.735 L 303.827 681.47 L 314.027 701.134 L 314.027 701.134 Z  M 302.195 694.79 L 306.126 693.844 L 303.85 689.269 L 303.85 689.269 Q 303.644 688.852 302.869 687.163 L 302.869 687.163 L 302.869 687.163 Q 302.093 685.473 301.878 684.892 L 301.878 684.892 L 301.878 684.892 Q 301.987 686.162 302.057 687.704 L 302.057 687.704 L 302.057 687.704 Q 302.127 689.247 302.195 694.79 L 302.195 694.79 L 302.195 694.79 Z  M 327.406 698.134 L 323.579 699.008 L 321.415 689.525 L 321.415 689.525 Q 321.021 687.797 320.404 687.006 L 320.404 687.006 L 320.404 687.006 Q 319.788 686.215 318.86 686.427 L 318.86 686.427 L 318.86 686.427 Q 317.632 686.707 317.339 688.058 L 317.339 688.058 L 317.339 688.058 Q 317.046 689.41 317.708 692.309 L 317.708 692.309 L 319.451 699.949 L 315.652 700.816 L 312.022 684.907 L 315.036 684.219 L 315.959 686.157 L 316.201 686.102 L 316.201 686.102 Q 316.465 684.885 317.28 684.045 L 317.28 684.045 L 317.28 684.045 Q 318.095 683.206 319.38 682.912 L 319.38 682.912 L 319.38 682.912 Q 321.551 682.417 322.968 683.656 L 322.968 683.656 L 322.968 683.656 Q 324.385 684.895 325.037 687.752 L 325.037 687.752 L 327.406 698.134 L 327.406 698.134 Z  M 330.811 680.718 L 334.325 696.653 L 330.52 697.492 L 327.006 681.557 L 330.811 680.718 L 330.811 680.718 Z  M 325.931 677.429 L 325.931 677.429 L 325.931 677.429 Q 325.723 676.485 326.152 675.812 L 326.152 675.812 L 326.152 675.812 Q 326.581 675.14 327.568 674.923 L 327.568 674.923 L 327.568 674.923 Q 328.498 674.718 329.177 675.145 L 329.177 675.145 L 329.177 675.145 Q 329.857 675.573 330.065 676.517 L 330.065 676.517 L 330.065 676.517 Q 330.279 677.49 329.825 678.152 L 329.825 678.152 L 329.825 678.152 Q 329.371 678.815 328.47 679.014 L 328.47 679.014 L 328.47 679.014 Q 327.526 679.222 326.836 678.812 L 326.836 678.812 L 326.836 678.812 Q 326.145 678.401 325.931 677.429 Z  M 357.346 692.102 L 353.493 692.853 L 351.633 683.306 L 351.633 683.306 Q 350.947 679.783 349.207 680.122 L 349.207 680.122 L 349.207 680.122 Q 347.942 680.368 347.64 681.733 L 347.64 681.733 L 347.64 681.733 Q 347.339 683.097 347.88 685.872 L 347.88 685.872 L 349.395 693.651 L 345.542 694.402 L 343.682 684.855 L 343.682 684.855 Q 342.995 681.332 341.227 681.677 L 341.227 681.677 L 341.227 681.677 Q 339.99 681.917 339.673 683.278 L 339.673 683.278 L 339.673 683.278 Q 339.356 684.638 339.917 687.513 L 339.917 687.513 L 341.415 695.206 L 337.591 695.951 L 334.47 679.934 L 337.504 679.342 L 338.365 681.309 L 338.609 681.261 L 338.609 681.261 Q 338.946 679.927 339.835 679.164 L 339.835 679.164 L 339.835 679.164 Q 340.723 678.402 341.859 678.181 L 341.859 678.181 L 341.859 678.181 Q 344.792 677.609 346.311 680.194 L 346.311 680.194 L 346.454 680.166 L 346.454 680.166 Q 347.136 677.153 349.839 676.626 L 349.839 676.626 L 349.839 676.626 Q 351.967 676.211 353.358 677.492 L 353.358 677.492 L 353.358 677.492 Q 354.749 678.774 355.31 681.649 L 355.31 681.649 L 357.346 692.102 L 357.346 692.102 Z  M 371.152 689.752 L 368.338 690.241 L 367.192 688.181 L 367.105 688.196 L 367.105 688.196 Q 366.499 689.758 365.683 690.45 L 365.683 690.45 L 365.683 690.45 Q 364.867 691.142 363.481 691.383 L 363.481 691.383 L 363.481 691.383 Q 361.706 691.691 360.458 690.54 L 360.458 690.54 L 360.458 690.54 Q 359.209 689.39 358.798 687.023 L 358.798 687.023 L 358.798 687.023 Q 358.357 684.483 359.535 683.007 L 359.535 683.007 L 359.535 683.007 Q 360.713 681.531 363.461 680.919 L 363.461 680.919 L 365.582 680.461 L 365.382 679.307 L 365.382 679.307 Q 364.99 677.055 363.042 677.394 L 363.042 677.394 L 363.042 677.394 Q 361.599 677.645 359.918 679.097 L 359.918 679.097 L 358.129 676.672 L 358.129 676.672 Q 360.261 674.74 363.075 674.251 L 363.075 674.251 L 363.075 674.251 Q 365.63 673.807 367.22 675.04 L 367.22 675.04 L 367.22 675.04 Q 368.809 676.273 369.276 678.957 L 369.276 678.957 L 371.152 689.752 L 371.152 689.752 Z  M 364.532 688.108 L 364.532 688.108 L 364.532 688.108 Q 365.586 687.924 366.049 686.87 L 366.049 686.87 L 366.049 686.87 Q 366.513 685.816 366.239 684.242 L 366.239 684.242 L 366.004 682.886 L 364.83 683.149 L 364.83 683.149 Q 363.529 683.45 363.034 684.235 L 363.034 684.235 L 363.034 684.235 Q 362.539 685.02 362.772 686.362 L 362.772 686.362 L 362.772 686.362 Q 363.118 688.353 364.532 688.108 Z  M 374.712 666.196 L 378.124 688.732 L 374.272 689.316 L 370.859 666.779 L 374.712 666.196 L 374.712 666.196 Z  M 389.414 682.364 L 389.414 682.364 L 389.414 682.364 Q 389.726 684.732 388.515 686.243 L 388.515 686.243 L 388.515 686.243 Q 387.303 687.755 384.602 688.112 L 384.602 688.112 L 384.602 688.112 Q 382.206 688.428 380.513 687.691 L 380.513 687.691 L 380.07 684.336 L 380.07 684.336 Q 380.942 684.783 382.057 685.005 L 382.057 685.005 L 382.057 685.005 Q 383.172 685.227 383.986 685.12 L 383.986 685.12 L 383.986 685.12 Q 384.886 685.001 385.3 684.496 L 385.3 684.496 L 385.3 684.496 Q 385.713 683.991 385.617 683.264 L 385.617 683.264 L 385.617 683.264 Q 385.52 682.524 384.953 682.037 L 384.953 682.037 L 384.953 682.037 Q 384.386 681.55 382.959 680.926 L 382.959 680.926 L 382.959 680.926 Q 381.064 680.112 380.146 679.03 L 380.146 679.03 L 380.146 679.03 Q 379.227 677.947 379.014 676.335 L 379.014 676.335 L 379.014 676.335 Q 378.742 674.272 379.999 672.88 L 379.999 672.88 L 379.999 672.88 Q 381.256 671.488 383.724 671.162 L 383.724 671.162 L 383.724 671.162 Q 385.874 670.878 387.926 671.76 L 387.926 671.76 L 387.028 674.701 L 387.028 674.701 Q 385.363 674.063 384.187 674.219 L 384.187 674.219 L 384.187 674.219 Q 383.446 674.316 383.128 674.757 L 383.128 674.757 L 383.128 674.757 Q 382.809 675.198 382.884 675.765 L 382.884 675.765 L 382.884 675.765 Q 382.97 676.418 383.495 676.866 L 383.495 676.866 L 383.495 676.866 Q 384.019 677.314 385.368 677.904 L 385.368 677.904 L 385.368 677.904 Q 386.999 678.62 387.693 679.178 L 387.693 679.178 L 387.693 679.178 Q 388.388 679.737 388.829 680.506 L 388.829 680.506 L 388.829 680.506 Q 389.27 681.275 389.414 682.364 Z  M 204.24 716.614 L 202.835 716.824 L 204.062 725.068 L 200.121 725.655 L 196.967 704.472 L 202.125 703.704 L 202.125 703.704 Q 205.399 703.217 207.188 704.535 L 207.188 704.535 L 207.188 704.535 Q 208.976 705.853 209.451 709.041 L 209.451 709.041 L 209.451 709.041 Q 210.048 713.054 207.576 715.051 L 207.576 715.051 L 213.031 723.732 L 208.815 724.36 L 204.24 716.614 L 204.24 716.614 Z  M 201.415 707.29 L 202.33 713.433 L 203.344 713.282 L 203.344 713.282 Q 204.735 713.075 205.226 712.195 L 205.226 712.195 L 205.226 712.195 Q 205.717 711.315 205.484 709.75 L 205.484 709.75 L 205.484 709.75 Q 205.242 708.127 204.495 707.535 L 204.495 707.535 L 204.495 707.535 Q 203.747 706.943 202.4 707.144 L 202.4 707.144 L 201.415 707.29 L 201.415 707.29 Z  M 220.708 722.749 L 220.708 722.749 L 220.708 722.749 Q 217.688 723.253 215.589 721.398 L 215.589 721.398 L 215.589 721.398 Q 213.49 719.543 212.834 715.613 L 212.834 715.613 L 212.834 715.613 Q 212.169 711.625 213.37 709.123 L 213.37 709.123 L 213.37 709.123 Q 214.571 706.62 217.389 706.15 L 217.389 706.15 L 217.389 706.15 Q 220.018 705.712 221.855 707.373 L 221.855 707.373 L 221.855 707.373 Q 223.692 709.034 224.268 712.487 L 224.268 712.487 L 224.61 714.539 L 216.88 715.829 L 216.88 715.829 Q 217.283 717.975 218.295 718.882 L 218.295 718.882 L 218.295 718.882 Q 219.308 719.79 220.782 719.544 L 220.782 719.544 L 220.782 719.544 Q 222.66 719.231 224.43 717.732 L 224.43 717.732 L 224.958 720.897 L 224.958 720.897 Q 223.294 722.318 220.708 722.749 Z  M 217.854 709.117 L 217.854 709.117 L 217.854 709.117 Q 217.031 709.255 216.642 710.218 L 216.642 710.218 L 216.642 710.218 Q 216.253 711.181 216.473 713.031 L 216.473 713.031 L 220.374 712.38 L 220.374 712.38 Q 220.051 710.622 219.393 709.796 L 219.393 709.796 L 219.393 709.796 Q 218.735 708.97 217.854 709.117 Z  M 236.064 714.817 L 236.064 714.817 L 236.064 714.817 Q 236.499 717.165 235.367 718.737 L 235.367 718.737 L 235.367 718.737 Q 234.235 720.31 231.556 720.805 L 231.556 720.805 L 231.556 720.805 Q 229.179 721.244 227.45 720.596 L 227.45 720.596 L 226.835 717.268 L 226.835 717.268 Q 227.728 717.669 228.854 717.834 L 228.854 717.834 L 228.854 717.834 Q 229.979 717.998 230.785 717.849 L 230.785 717.849 L 230.785 717.849 Q 231.679 717.684 232.065 717.158 L 232.065 717.158 L 232.065 717.158 Q 232.452 716.632 232.319 715.912 L 232.319 715.912 L 232.319 715.912 Q 232.183 715.177 231.592 714.72 L 231.592 714.72 L 231.592 714.72 Q 231.001 714.263 229.544 713.714 L 229.544 713.714 L 229.544 713.714 Q 227.609 712.999 226.636 711.965 L 226.636 711.965 L 226.636 711.965 Q 225.663 710.93 225.367 709.332 L 225.367 709.332 L 225.367 709.332 Q 224.989 707.286 226.172 705.831 L 226.172 705.831 L 226.172 705.831 Q 227.356 704.376 229.804 703.923 L 229.804 703.923 L 229.804 703.923 Q 231.936 703.529 234.031 704.303 L 234.031 704.303 L 233.287 707.286 L 233.287 707.286 Q 231.591 706.736 230.424 706.952 L 230.424 706.952 L 230.424 706.952 Q 229.689 707.087 229.394 707.544 L 229.394 707.544 L 229.394 707.544 Q 229.099 708.001 229.203 708.563 L 229.203 708.563 L 229.203 708.563 Q 229.322 709.211 229.869 709.631 L 229.869 709.631 L 229.869 709.631 Q 230.416 710.052 231.794 710.572 L 231.794 710.572 L 231.794 710.572 Q 233.459 711.202 234.182 711.724 L 234.182 711.724 L 234.182 711.724 Q 234.904 712.246 235.384 712.991 L 235.384 712.991 L 235.384 712.991 Q 235.865 713.737 236.064 714.817 Z  M 244.679 718.203 L 244.679 718.203 L 244.679 718.203 Q 241.822 718.784 239.907 717.005 L 239.907 717.005 L 239.907 717.005 Q 237.991 715.227 237.172 711.193 L 237.172 711.193 L 237.172 711.193 Q 236.315 706.972 237.306 704.604 L 237.306 704.604 L 237.306 704.604 Q 238.297 702.235 241.255 701.635 L 241.255 701.635 L 241.255 701.635 Q 242.145 701.454 243.173 701.514 L 243.173 701.514 L 243.173 701.514 Q 244.202 701.574 245.076 701.905 L 245.076 701.905 L 244.589 705.098 L 244.589 705.098 Q 243.254 704.636 242.336 704.823 L 242.336 704.823 L 242.336 704.823 Q 241.115 705.071 240.835 706.451 L 240.835 706.451 L 240.835 706.451 Q 240.555 707.83 241.071 710.371 L 241.071 710.371 L 241.071 710.371 Q 241.575 712.855 242.355 713.974 L 242.355 713.974 L 242.355 713.974 Q 243.136 715.094 244.342 714.849 L 244.342 714.849 L 244.342 714.849 Q 245.777 714.557 247.138 713.235 L 247.138 713.235 L 247.82 716.594 L 247.82 716.594 Q 246.502 717.833 244.679 718.203 Z  M 261.888 714.117 L 258.842 714.792 L 257.917 712.851 L 257.717 712.895 L 257.717 712.895 Q 257.428 714.099 256.586 714.938 L 256.586 714.938 L 256.586 714.938 Q 255.744 715.777 254.486 716.056 L 254.486 716.056 L 254.486 716.056 Q 252.34 716.531 250.916 715.316 L 250.916 715.316 L 250.916 715.316 Q 249.492 714.101 248.849 711.197 L 248.849 711.197 L 246.548 700.8 L 250.395 699.948 L 252.494 709.43 L 252.494 709.43 Q 252.88 711.175 253.491 711.97 L 253.491 711.97 L 253.491 711.97 Q 254.102 712.765 255.032 712.559 L 255.032 712.559 L 255.032 712.559 Q 256.262 712.287 256.555 710.932 L 256.555 710.932 L 256.555 710.932 Q 256.847 709.577 256.205 706.674 L 256.205 706.674 L 254.514 699.036 L 258.361 698.185 L 261.888 714.117 L 261.888 714.117 Z  M 270.959 712.097 L 270.959 712.097 L 270.959 712.097 Q 267.993 712.854 265.744 711.183 L 265.744 711.183 L 265.744 711.183 Q 263.496 709.512 262.511 705.651 L 262.511 705.651 L 262.511 705.651 Q 261.511 701.734 262.496 699.139 L 262.496 699.139 L 262.496 699.139 Q 263.482 696.544 266.249 695.838 L 266.249 695.838 L 266.249 695.838 Q 268.833 695.178 270.803 696.679 L 270.803 696.679 L 270.803 696.679 Q 272.773 698.179 273.639 701.571 L 273.639 701.571 L 274.154 703.587 L 266.56 705.525 L 266.56 705.525 Q 267.142 707.629 268.228 708.448 L 268.228 708.448 L 268.228 708.448 Q 269.314 709.267 270.762 708.897 L 270.762 708.897 L 270.762 708.897 Q 272.607 708.426 274.244 706.784 L 274.244 706.784 L 275.037 709.892 L 275.037 709.892 Q 273.5 711.449 270.959 712.097 Z  M 266.964 698.755 L 266.964 698.755 L 266.964 698.755 Q 266.155 698.961 265.849 699.954 L 265.849 699.954 L 265.849 699.954 Q 265.543 700.947 265.918 702.771 L 265.918 702.771 L 269.75 701.793 L 269.75 701.793 Q 269.28 700.069 268.554 699.301 L 268.554 699.301 L 268.554 699.301 Q 267.829 698.534 266.964 698.755 Z  M 282.652 709.104 L 282.652 709.104 L 282.652 709.104 Q 280.467 709.664 278.652 707.83 L 278.652 707.83 L 278.652 707.83 Q 276.836 705.997 275.852 702.151 L 275.852 702.151 L 275.852 702.151 Q 274.863 698.291 275.538 695.79 L 275.538 695.79 L 275.538 695.79 Q 276.213 693.288 278.384 692.732 L 278.384 692.732 L 278.384 692.732 Q 279.462 692.456 280.386 692.787 L 280.386 692.787 L 280.386 692.787 Q 281.31 693.117 282.3 694.209 L 282.3 694.209 L 282.528 694.151 L 282.528 694.151 Q 281.805 692.038 281.583 691.172 L 281.583 691.172 L 280.231 685.893 L 284.006 684.926 L 289.661 707.007 L 286.851 707.726 L 285.686 705.832 L 285.558 705.865 L 285.558 705.865 Q 284.951 708.515 282.652 709.104 Z  M 283.055 705.599 L 283.055 705.599 L 283.055 705.599 Q 284.105 705.33 284.342 704.248 L 284.342 704.248 L 284.342 704.248 Q 284.58 703.167 283.975 700.63 L 283.975 700.63 L 283.848 700.133 L 283.848 700.133 Q 283.143 697.38 282.366 696.385 L 282.366 696.385 L 282.366 696.385 Q 281.59 695.389 280.469 695.676 L 280.469 695.676 L 280.469 695.676 Q 279.418 695.945 279.272 697.351 L 279.272 697.351 L 279.272 697.351 Q 279.126 698.757 279.754 701.212 L 279.754 701.212 L 279.754 701.212 Q 280.383 703.667 281.18 704.771 L 281.18 704.771 L 281.18 704.771 Q 281.977 705.875 283.055 705.599 Z  M 95.292 731.066 L 95.833 709.657 L 101.295 709.795 L 101.295 709.795 Q 104.634 709.88 106.124 711.214 L 106.124 711.214 L 106.124 711.214 Q 107.615 712.549 107.543 715.375 L 107.543 715.375 L 107.543 715.375 Q 107.496 717.235 106.659 718.466 L 106.659 718.466 L 106.659 718.466 Q 105.822 719.698 104.424 719.926 L 104.424 719.926 L 104.42 720.073 L 104.42 720.073 Q 106.225 720.573 106.999 721.838 L 106.999 721.838 L 106.999 721.838 Q 107.773 723.103 107.72 725.168 L 107.72 725.168 L 107.72 725.168 Q 107.647 728.082 106.045 729.69 L 106.045 729.69 L 106.045 729.69 Q 104.444 731.298 101.735 731.229 L 101.735 731.229 L 95.292 731.066 L 95.292 731.066 Z  M 99.495 713.193 L 99.364 718.362 L 101.195 718.409 L 101.195 718.409 Q 102.454 718.44 102.984 717.78 L 102.984 717.78 L 102.984 717.78 Q 103.513 717.119 103.547 715.787 L 103.547 715.787 L 103.547 715.787 Q 103.581 714.454 103.01 713.861 L 103.01 713.861 L 103.01 713.861 Q 102.438 713.268 101.179 713.236 L 101.179 713.236 L 99.495 713.193 L 99.495 713.193 Z  M 101.228 721.736 L 99.28 721.686 L 99.129 727.676 L 101.135 727.726 L 101.135 727.726 Q 102.38 727.758 103.007 727.012 L 103.007 727.012 L 103.007 727.012 Q 103.634 726.266 103.674 724.67 L 103.674 724.67 L 103.674 724.67 Q 103.747 721.799 101.228 721.736 L 101.228 721.736 L 101.228 721.736 Z  M 117.317 714.745 L 117.317 714.745 L 117.317 714.745 Q 118.035 714.749 118.722 714.973 L 118.722 714.973 L 118.245 718.75 L 118.245 718.75 Q 117.836 718.601 117.177 718.597 L 117.177 718.597 L 117.177 718.597 Q 115.756 718.588 114.987 719.704 L 114.987 719.704 L 114.987 719.704 Q 114.219 720.82 114.206 722.959 L 114.206 722.959 L 114.156 731.352 L 110.26 731.329 L 110.357 715.011 L 113.565 715.03 L 113.989 717.582 L 114.121 717.582 L 114.121 717.582 Q 114.775 716.048 115.54 715.394 L 115.54 715.394 L 115.54 715.394 Q 116.306 714.739 117.317 714.745 Z  M 124.224 715.002 L 124.293 731.32 L 120.396 731.336 L 120.327 715.018 L 124.224 715.002 L 124.224 715.002 Z  M 120.148 710.756 L 120.148 710.756 L 120.148 710.756 Q 120.144 709.789 120.706 709.223 L 120.706 709.223 L 120.706 709.223 Q 121.267 708.657 122.278 708.652 L 122.278 708.652 L 122.278 708.652 Q 123.23 708.648 123.804 709.21 L 123.804 709.21 L 123.804 709.21 Q 124.378 709.771 124.382 710.738 L 124.382 710.738 L 124.382 710.738 Q 124.386 711.734 123.802 712.286 L 123.802 712.286 L 123.802 712.286 Q 123.219 712.838 122.296 712.842 L 122.296 712.842 L 122.296 712.842 Q 121.329 712.846 120.741 712.299 L 120.741 712.299 L 120.741 712.299 Q 120.152 711.752 120.148 710.756 Z  M 139.682 730.89 L 135.758 730.997 L 135.491 721.275 L 135.491 721.275 Q 135.442 719.503 134.993 718.607 L 134.993 718.607 L 134.993 718.607 Q 134.543 717.71 133.591 717.737 L 133.591 717.737 L 133.591 717.737 Q 132.332 717.771 131.781 719.039 L 131.781 719.039 L 131.781 719.039 Q 131.229 720.307 131.311 723.28 L 131.311 723.28 L 131.526 731.114 L 127.631 731.221 L 127.183 714.908 L 130.273 714.824 L 130.799 716.905 L 131.048 716.898 L 131.048 716.898 Q 131.544 715.756 132.507 715.092 L 132.507 715.092 L 132.507 715.092 Q 133.471 714.428 134.789 714.392 L 134.789 714.392 L 134.789 714.392 Q 137.015 714.331 138.162 715.823 L 138.162 715.823 L 138.162 715.823 Q 139.309 717.316 139.39 720.244 L 139.39 720.244 L 139.682 730.89 L 139.682 730.89 Z  M 149.02 714.111 L 153.657 713.854 L 153.783 716.135 L 151.862 716.682 L 151.862 716.682 Q 152.489 717.674 152.575 719.225 L 152.575 719.225 L 152.575 719.225 Q 152.719 721.813 151.396 723.354 L 151.396 723.354 L 151.396 723.354 Q 150.073 724.895 147.558 725.034 L 147.558 725.034 L 147.558 725.034 Q 146.826 725.075 146.469 724.977 L 146.469 724.977 L 146.469 724.977 Q 146.205 725.241 145.973 725.562 L 145.973 725.562 L 145.973 725.562 Q 145.742 725.883 145.767 726.337 L 145.767 726.337 L 145.767 726.337 Q 145.823 727.36 147.593 727.262 L 147.593 727.262 L 149.948 727.131 L 149.948 727.131 Q 152.025 727.016 153.206 728.073 L 153.206 728.073 L 153.206 728.073 Q 154.387 729.13 154.512 731.382 L 154.512 731.382 L 154.512 731.382 Q 154.669 734.22 152.854 735.875 L 152.854 735.875 L 152.854 735.875 Q 151.039 737.531 147.47 737.729 L 147.47 737.729 L 147.47 737.729 Q 144.764 737.88 143.236 736.783 L 143.236 736.783 L 143.236 736.783 Q 141.708 735.687 141.587 733.508 L 141.587 733.508 L 141.587 733.508 Q 141.512 732.148 142.288 731.07 L 142.288 731.07 L 142.288 731.07 Q 143.065 729.993 144.516 729.443 L 144.516 729.443 L 144.516 729.443 Q 143.754 729.192 143.244 728.604 L 143.244 728.604 L 143.244 728.604 Q 142.735 728.016 142.689 727.197 L 142.689 727.197 L 142.689 727.197 Q 142.662 726.7 142.786 726.289 L 142.786 726.289 L 142.786 726.289 Q 142.91 725.879 143.16 725.506 L 143.16 725.506 L 143.16 725.506 Q 143.411 725.132 144.206 724.384 L 144.206 724.384 L 144.206 724.384 Q 143.163 723.826 142.507 722.586 L 142.507 722.586 L 142.507 722.586 Q 141.851 721.346 141.765 719.795 L 141.765 719.795 L 141.765 719.795 Q 141.617 717.119 142.94 715.578 L 142.94 715.578 L 142.94 715.578 Q 144.263 714.038 146.881 713.892 L 146.881 713.892 L 146.881 713.892 Q 147.378 713.865 148.028 713.939 L 148.028 713.939 L 148.028 713.939 Q 148.677 714.013 149.02 714.111 L 149.02 714.111 L 149.02 714.111 Z  M 145.111 733.019 L 145.111 733.019 L 145.111 733.019 Q 145.164 733.984 145.8 734.47 L 145.8 734.47 L 145.8 734.47 Q 146.436 734.955 147.562 734.893 L 147.562 734.893 L 147.562 734.893 Q 149.332 734.795 150.179 734.073 L 150.179 734.073 L 150.179 734.073 Q 151.027 733.351 150.962 732.181 L 150.962 732.181 L 150.962 732.181 Q 150.911 731.259 150.414 730.905 L 150.414 730.905 L 150.414 730.905 Q 149.918 730.551 148.616 730.624 L 148.616 730.624 L 146.729 730.728 L 146.729 730.728 Q 145.939 730.772 145.497 731.391 L 145.497 731.391 L 145.497 731.391 Q 145.055 732.01 145.111 733.019 Z  M 145.57 719.613 L 145.57 719.613 L 145.57 719.613 Q 145.73 722.495 147.353 722.405 L 147.353 722.405 L 147.353 722.405 Q 148.933 722.317 148.771 719.406 L 148.771 719.406 L 148.771 719.406 Q 148.606 716.423 147.026 716.51 L 147.026 716.51 L 147.026 716.51 Q 145.402 716.601 145.57 719.613 Z  M 159.535 713.498 L 160.439 729.792 L 156.548 730.007 L 155.644 713.714 L 159.535 713.498 L 159.535 713.498 Z  M 155.247 709.467 L 155.247 709.467 L 155.247 709.467 Q 155.193 708.502 155.725 707.907 L 155.725 707.907 L 155.725 707.907 Q 156.257 707.313 157.266 707.257 L 157.266 707.257 L 157.266 707.257 Q 158.217 707.204 158.819 707.736 L 158.819 707.736 L 158.819 707.736 Q 159.42 708.267 159.474 709.232 L 159.474 709.232 L 159.474 709.232 Q 159.529 710.227 158.974 710.808 L 158.974 710.808 L 158.974 710.808 Q 158.42 711.389 157.498 711.44 L 157.498 711.44 L 157.498 711.44 Q 156.533 711.494 155.918 710.978 L 155.918 710.978 L 155.918 710.978 Q 155.302 710.462 155.247 709.467 Z  M 175.778 728.473 L 171.866 728.8 L 171.055 719.108 L 171.055 719.108 Q 170.907 717.342 170.408 716.472 L 170.408 716.472 L 170.408 716.472 Q 169.909 715.602 168.96 715.682 L 168.96 715.682 L 168.96 715.682 Q 167.705 715.787 167.225 717.084 L 167.225 717.084 L 167.225 717.084 Q 166.746 718.381 166.994 721.344 L 166.994 721.344 L 167.647 729.154 L 163.764 729.478 L 162.404 713.217 L 165.484 712.959 L 166.125 715.008 L 166.374 714.987 L 166.374 714.987 Q 166.805 713.819 167.73 713.102 L 167.73 713.102 L 167.73 713.102 Q 168.655 712.385 169.969 712.275 L 169.969 712.275 L 169.969 712.275 Q 172.187 712.089 173.417 713.515 L 173.417 713.515 L 173.417 713.515 Q 174.646 714.941 174.89 717.861 L 174.89 717.861 L 175.778 728.473 L 175.778 728.473 Z  M 184.237 711.206 L 188.854 710.71 L 189.098 712.982 L 187.208 713.627 L 187.208 713.627 Q 187.885 714.586 188.051 716.13 L 188.051 716.13 L 188.051 716.13 Q 188.328 718.708 187.086 720.314 L 187.086 720.314 L 187.086 720.314 Q 185.844 721.921 183.339 722.19 L 183.339 722.19 L 183.339 722.19 Q 182.611 722.268 182.249 722.189 L 182.249 722.189 L 182.249 722.189 Q 181.998 722.466 181.784 722.799 L 181.784 722.799 L 181.784 722.799 Q 181.569 723.131 181.617 723.583 L 181.617 723.583 L 181.617 723.583 Q 181.727 724.602 183.489 724.413 L 183.489 724.413 L 185.834 724.161 L 185.834 724.161 Q 187.902 723.939 189.136 724.934 L 189.136 724.934 L 189.136 724.934 Q 190.37 725.928 190.611 728.171 L 190.611 728.171 L 190.611 728.171 Q 190.914 730.997 189.186 732.744 L 189.186 732.744 L 189.186 732.744 Q 187.459 734.491 183.905 734.873 L 183.905 734.873 L 183.905 734.873 Q 181.21 735.162 179.628 734.146 L 179.628 734.146 L 179.628 734.146 Q 178.046 733.13 177.813 730.96 L 177.813 730.96 L 177.813 730.96 Q 177.667 729.605 178.387 728.489 L 178.387 728.489 L 178.387 728.489 Q 179.107 727.373 180.528 726.749 L 180.528 726.749 L 180.528 726.749 Q 179.754 726.538 179.215 725.977 L 179.215 725.977 L 179.215 725.977 Q 178.676 725.416 178.589 724.6 L 178.589 724.6 L 178.589 724.6 Q 178.535 724.105 178.638 723.689 L 178.638 723.689 L 178.638 723.689 Q 178.741 723.273 178.972 722.887 L 178.972 722.887 L 178.972 722.887 Q 179.203 722.501 179.958 721.713 L 179.958 721.713 L 179.958 721.713 Q 178.887 721.209 178.169 720.004 L 178.169 720.004 L 178.169 720.004 Q 177.45 718.8 177.284 717.256 L 177.284 717.256 L 177.284 717.256 Q 176.998 714.591 178.24 712.984 L 178.24 712.984 L 178.24 712.984 Q 179.482 711.378 182.089 711.098 L 182.089 711.098 L 182.089 711.098 Q 182.584 711.044 183.237 711.085 L 183.237 711.085 L 183.237 711.085 Q 183.889 711.125 184.237 711.206 L 184.237 711.206 L 184.237 711.206 Z  M 181.306 730.29 L 181.306 730.29 L 181.306 730.29 Q 181.409 731.251 182.069 731.703 L 182.069 731.703 L 182.069 731.703 Q 182.729 732.156 183.851 732.035 L 183.851 732.035 L 183.851 732.035 Q 185.613 731.846 186.422 731.081 L 186.422 731.081 L 186.422 731.081 Q 187.231 730.317 187.106 729.152 L 187.106 729.152 L 187.106 729.152 Q 187.008 728.234 186.494 727.906 L 186.494 727.906 L 186.494 727.906 Q 185.98 727.578 184.684 727.717 L 184.684 727.717 L 182.805 727.919 L 182.805 727.919 Q 182.018 728.004 181.608 728.644 L 181.608 728.644 L 181.608 728.644 Q 181.198 729.285 181.306 730.29 Z  M 181.074 716.879 L 181.074 716.879 L 181.074 716.879 Q 181.382 719.748 182.999 719.574 L 182.999 719.574 L 182.999 719.574 Q 184.572 719.405 184.261 716.507 L 184.261 716.507 L 184.261 716.507 Q 183.942 713.536 182.369 713.705 L 182.369 713.705 L 182.369 713.705 Q 180.752 713.878 181.074 716.879 Z " fill="rgb(0,35,91)"/><path d=" M 473.702 480.221 L 473.702 480.221 L 473.702 480.221 Q 470.978 486.239 466.491 488.064 L 466.491 488.064 L 466.491 488.064 Q 462.004 489.889 456.278 487.298 L 456.278 487.298 L 456.278 487.298 Q 450.671 484.76 447.733 480.777 L 447.733 480.777 L 451.308 472.88 L 451.308 472.88 Q 454.701 478.2 458.723 480.021 L 458.723 480.021 L 458.723 480.021 Q 461.013 481.057 462.744 480.32 L 462.744 480.32 L 462.744 480.32 Q 464.475 479.582 465.459 477.409 L 465.459 477.409 L 465.459 477.409 Q 466.429 475.266 465.853 472.865 L 465.853 472.865 L 465.853 472.865 Q 465.277 470.465 463.089 466.857 L 463.089 466.857 L 463.089 466.857 Q 461.193 463.699 460.56 461.308 L 460.56 461.308 L 460.56 461.308 Q 459.927 458.917 460.132 456.392 L 460.132 456.392 L 460.132 456.392 Q 460.337 453.867 461.639 450.99 L 461.639 450.99 L 461.639 450.99 Q 464.138 445.47 468.667 443.63 L 468.667 443.63 L 468.667 443.63 Q 473.197 441.789 478.364 444.127 L 478.364 444.127 L 478.364 444.127 Q 483.297 446.36 486.598 451.179 L 486.598 451.179 L 481.059 456.384 L 481.059 456.384 Q 480.022 454.924 478.773 453.58 L 478.773 453.58 L 478.773 453.58 Q 477.524 452.237 475.762 451.439 L 475.762 451.439 L 475.762 451.439 Q 473.825 450.562 472.204 451.368 L 472.204 451.368 L 472.204 451.368 Q 470.584 452.173 469.587 454.375 L 469.587 454.375 L 469.587 454.375 Q 468.604 456.548 469.121 458.727 L 469.121 458.727 L 469.121 458.727 Q 469.638 460.907 471.82 464.37 L 471.82 464.37 L 471.82 464.37 Q 474.743 469.089 475.073 472.776 L 475.073 472.776 L 475.073 472.776 Q 475.403 476.463 473.702 480.221 Z  M 473.337 489.916 L 473.337 489.916 L 473.337 489.916 Q 474.502 487.688 476.329 487.08 L 476.329 487.08 L 476.329 487.08 Q 478.157 486.472 480.498 487.696 L 480.498 487.696 L 480.498 487.696 Q 482.84 488.921 483.405 490.762 L 483.405 490.762 L 483.405 490.762 Q 483.969 492.603 482.79 494.859 L 482.79 494.859 L 482.79 494.859 Q 481.625 497.086 479.741 497.665 L 479.741 497.665 L 479.741 497.665 Q 477.856 498.243 475.6 497.063 L 475.6 497.063 L 475.6 497.063 Q 473.287 495.854 472.737 493.984 L 472.737 493.984 L 472.737 493.984 Q 472.187 492.115 473.337 489.916 Z  M 439.51 437.058 L 425.957 474.067 L 417.756 471.064 L 431.309 434.054 L 422.836 430.951 L 425.485 423.719 L 450.632 432.928 L 447.983 440.161 L 439.51 437.058 L 439.51 437.058 Z  M 436.777 473.484 L 436.777 473.484 L 436.777 473.484 Q 437.709 471.149 439.465 470.358 L 439.465 470.358 L 439.465 470.358 Q 441.221 469.567 443.676 470.548 L 443.676 470.548 L 443.676 470.548 Q 446.13 471.528 446.879 473.302 L 446.879 473.302 L 446.879 473.302 Q 447.628 475.076 446.683 477.44 L 446.683 477.44 L 446.683 477.44 Q 445.751 479.774 443.935 480.541 L 443.935 480.541 L 443.935 480.541 Q 442.119 481.308 439.755 480.364 L 439.755 480.364 L 439.755 480.364 Q 437.331 479.396 436.594 477.592 L 436.594 477.592 L 436.594 477.592 Q 435.857 475.788 436.777 473.484 Z  M 394.956 463.155 L 386.457 460.88 L 386.917 448.693 L 375.056 445.518 L 369.366 456.306 L 360.899 454.039 L 384.4 411.356 L 395.887 414.43 L 394.956 463.155 L 394.956 463.155 Z  M 378.745 438.466 L 387.337 440.766 L 387.742 429.531 L 387.742 429.531 Q 387.782 428.508 388.057 424.428 L 388.057 424.428 L 388.057 424.428 Q 388.331 420.348 388.526 418.999 L 388.526 418.999 L 388.526 418.999 Q 387.404 421.568 385.919 424.623 L 385.919 424.623 L 385.919 424.623 Q 384.434 427.678 378.745 438.466 L 378.745 438.466 L 378.745 438.466 Z  M 397.868 459.853 L 397.868 459.853 L 397.868 459.853 Q 398.622 457.455 400.314 456.534 L 400.314 456.534 L 400.314 456.534 Q 402.005 455.613 404.526 456.406 L 404.526 456.406 L 404.526 456.406 Q 407.047 457.198 407.927 458.911 L 407.927 458.911 L 407.927 458.911 Q 408.808 460.623 408.045 463.052 L 408.045 463.052 L 408.045 463.052 Q 407.291 465.45 405.538 466.351 L 405.538 466.351 L 405.538 466.351 Q 403.785 467.253 401.356 466.49 L 401.356 466.49 L 401.356 466.49 Q 398.866 465.707 397.995 463.964 L 397.995 463.964 L 397.995 463.964 Q 397.124 462.22 397.868 459.853 Z  M 334.115 429.238 L 331.051 428.619 L 327.419 446.593 L 318.827 444.856 L 328.159 398.675 L 339.404 400.947 L 339.404 400.947 Q 346.543 402.389 349.256 406.456 L 349.256 406.456 L 349.256 406.456 Q 351.968 410.522 350.564 417.471 L 350.564 417.471 L 350.564 417.471 Q 348.796 426.221 342.187 428.502 L 342.187 428.502 L 346.972 450.544 L 337.78 448.686 L 334.115 429.238 L 334.115 429.238 Z  M 335.251 407.834 L 332.544 421.227 L 334.755 421.674 L 334.755 421.674 Q 337.788 422.287 339.462 420.833 L 339.462 420.833 L 339.462 420.833 Q 341.137 419.38 341.826 415.968 L 341.826 415.968 L 341.826 415.968 Q 342.541 412.431 341.439 410.646 L 341.439 410.646 L 341.439 410.646 Q 340.336 408.862 337.399 408.268 L 337.399 408.268 L 335.251 407.834 L 335.251 407.834 Z  M 349.747 446.922 L 349.747 446.922 L 349.747 446.922 Q 350.301 444.47 351.911 443.413 L 351.911 443.413 L 351.911 443.413 Q 353.52 442.356 356.098 442.938 L 356.098 442.938 L 356.098 442.938 Q 358.676 443.52 359.694 445.154 L 359.694 445.154 L 359.694 445.154 Q 360.713 446.788 360.152 449.272 L 360.152 449.272 L 360.152 449.272 Q 359.598 451.723 357.926 452.766 L 357.926 452.766 L 357.926 452.766 Q 356.253 453.809 353.77 453.248 L 353.77 453.248 L 353.77 453.248 Q 351.224 452.673 350.212 451.008 L 350.212 451.008 L 350.212 451.008 Q 349.201 449.342 349.747 446.922 Z  M 271.808 437.004 L 278.97 390.437 L 290.851 392.264 L 290.851 392.264 Q 298.114 393.381 300.993 396.709 L 300.993 396.709 L 300.993 396.709 Q 303.872 400.038 302.926 406.185 L 302.926 406.185 L 302.926 406.185 Q 302.304 410.23 300.133 412.684 L 300.133 412.684 L 300.133 412.684 Q 297.963 415.138 294.848 415.246 L 294.848 415.246 L 294.799 415.565 L 294.799 415.565 Q 298.597 417.16 299.933 420.136 L 299.933 420.136 L 299.933 420.136 Q 301.268 423.113 300.577 427.604 L 300.577 427.604 L 300.577 427.604 Q 299.602 433.943 295.659 437.005 L 295.659 437.005 L 295.659 437.005 Q 291.716 440.066 285.823 439.16 L 285.823 439.16 L 271.808 437.004 L 271.808 437.004 Z  M 285.973 399.176 L 284.244 410.42 L 288.226 411.032 L 288.226 411.032 Q 290.965 411.454 292.305 410.16 L 292.305 410.16 L 292.305 410.16 Q 293.645 408.866 294.091 405.968 L 294.091 405.968 L 294.091 405.968 Q 294.537 403.069 293.456 401.615 L 293.456 401.615 L 293.456 401.615 Q 292.376 400.161 289.636 399.739 L 289.636 399.739 L 285.973 399.176 L 285.973 399.176 Z  M 287.368 418.302 L 283.132 417.65 L 281.128 430.678 L 285.492 431.349 L 285.492 431.349 Q 288.199 431.765 289.776 430.312 L 289.776 430.312 L 289.776 430.312 Q 291.353 428.859 291.887 425.387 L 291.887 425.387 L 291.887 425.387 Q 292.847 419.144 287.368 418.302 L 287.368 418.302 L 287.368 418.302 Z  M 303.231 437.562 L 303.231 437.562 L 303.231 437.562 Q 303.655 435.085 305.206 433.944 L 305.206 433.944 L 305.206 433.944 Q 306.758 432.803 309.363 433.248 L 309.363 433.248 L 309.363 433.248 Q 311.967 433.693 313.071 435.271 L 313.071 435.271 L 313.071 435.271 Q 314.175 436.849 313.746 439.358 L 313.746 439.358 L 313.746 439.358 Q 313.323 441.836 311.708 442.966 L 311.708 442.966 L 311.708 442.966 Q 310.092 444.096 307.583 443.667 L 307.583 443.667 L 307.583 443.667 Q 305.01 443.228 303.912 441.618 L 303.912 441.618 L 303.912 441.618 Q 302.813 440.008 303.231 437.562 Z " fill="rgb(0,35,91)"/></g><g><path d=" M 88.621 671 C 86.432 680.631 88.955 695 92.621 699 C 96.288 703 172.948 701.103 213.955 693 C 269.621 682 302.955 672.333 363.955 662 C 425.288 654.667 431.621 653.333 486.955 654.667 C 462.288 650.667 462.955 648.667 424.288 648.333 Q 467.621 645.333 511.621 652.667 Q 480.288 642.333 442.621 643 C 465.955 641 497.621 646.333 505.288 646.667 C 480.955 640 444.139 630.098 272.621 658.333 C 136.955 680.667 90.288 663.667 88.621 671 Z " fill="rgb(204,2,0)"/><path d=" M 80.288 620.333 C 78.099 629.965 79.288 642.667 82.955 646.667 C 86.621 650.667 172.55 649.066 213.955 643.333 C 257.288 637.333 290.288 633.667 351.288 623.333 Q 412.621 616 520.246 626.687 Q 474.621 614.667 435.955 614.333 Q 461.621 612.667 511.621 618.667 Q 478.955 611.333 440.955 608.333 C 464.288 606.333 494.955 612.333 502.621 612.667 C 478.288 606 431.288 591.333 272.621 614.333 C 136.551 634.058 81.955 613 80.288 620.333 Z " fill="rgb(204,2,0)"/><path d=" M 292.876 546.825 C 291.88 546.883 291.211 546.434 290.621 545.75 Q 290.121 545.169 289.871 543.75 L 289.871 526.375 Q 289.719 524.698 290.621 523.75 C 291.522 522.804 291.558 522.913 293.238 522.83 C 388.88 518.108 425.559 527.875 486.955 542.875 Q 445.621 539.125 445.621 539.414 Q 497.371 551.688 530.746 565.938 C 450.496 549.438 441.184 540.25 292.876 546.825 Z " fill="rgb(204,2,0)"/><path d=" M 309.823 504.785 C 308.826 504.757 308.198 504.253 307.669 503.521 Q 307.221 502.9 307.093 501.464 L 308.579 484.153 Q 308.571 482.469 309.551 481.602 C 310.529 480.736 310.555 480.848 312.237 480.909 C 401.621 480.5 443.121 498.458 471.871 510.333 Q 431.01 503.061 445.976 506.297 Q 469.121 511.666 482.288 517.958 C 468.621 515.166 466.246 514.583 453.1 513.5 C 468.496 517.958 488.496 524.333 499.955 529.166 C 414.371 509.833 432.288 504.667 309.823 504.785 Z " fill="rgb(204,2,0)"/><path d=" M 267.4 462.639 C 266.403 462.611 265.774 462.107 265.246 461.375 Q 264.797 460.754 264.67 459.318 L 265.246 445.486 Q 265.238 443.802 266.218 442.935 C 267.196 442.069 267.222 442.181 268.903 442.242 C 290.184 442.188 343.371 451.25 384.621 466.875 C 370.955 464.083 360.643 462.458 347.496 461.375 C 367.121 466.75 373.184 467.625 388.809 473.875 C 325.059 463.375 313.621 463 267.4 462.639 Z " fill="rgb(204,2,0)"/><path d=" M 253.465 577.062 C 254.224 582.05 254.279 582.942 254.402 588.125 C 254.433 589.393 254.059 594.73 255.246 595.297 C 258.34 596.773 319.199 587.664 365.817 583.867 Q 422.885 579.219 524.184 596.102 Q 507.496 589 435.955 579.063 Q 457.434 578.125 521.621 590.125 Q 498.309 581.033 464.371 576.25 C 488.184 576.063 525.159 587.076 532.809 587.688 C 508.059 578.312 407.09 548.326 256.09 571.355 C 253.788 571.706 252.996 573.98 253.465 577.062 Z " fill="rgb(204,2,0)"/></g><g><mask id="_mask_qyayzgFguT5Z0adKD0NN1dT0ojjds8Pf"><path d=" M 87.33 474.693 C 79.995 451.967 85.766 429.731 100.21 425.069 C 114.654 420.406 132.336 435.072 139.671 457.798 C 147.007 480.524 141.236 502.76 126.792 507.422 C 112.348 512.084 94.666 497.419 87.33 474.693 Z " fill="white" stroke="none"/></mask><path d=" M 87.33 474.693 C 79.995 451.967 85.766 429.731 100.21 425.069 C 114.654 420.406 132.336 435.072 139.671 457.798 C 147.007 480.524 141.236 502.76 126.792 507.422 C 112.348 512.084 94.666 497.419 87.33 474.693 Z " fill="rgb(0,35,91)"/><path d=" M 87.33 474.693 C 79.995 451.967 85.766 429.731 100.21 425.069 C 114.654 420.406 132.336 435.072 139.671 457.798 C 147.007 480.524 141.236 502.76 126.792 507.422 C 112.348 512.084 94.666 497.419 87.33 474.693 Z " fill="rgb(0,35,91)" mask="url(#_mask_qyayzgFguT5Z0adKD0NN1dT0ojjds8Pf)" vector-effect="non-scaling-stroke" stroke-width="6" stroke="rgb(255,255,255)" stroke-linejoin="miter" stroke-linecap="square" stroke-miterlimit="3"/><mask id="_mask_aeInTGMACLDzUMzGGCDSnD7NubMKLHDb"><path d=" M 142.076 436.227 C 141.179 412.958 152.457 393.604 167.245 393.034 C 182.034 392.464 194.769 410.892 195.666 434.16 C 196.563 457.429 185.285 476.783 170.497 477.353 C 155.708 477.923 142.973 459.495 142.076 436.227 Z " fill="white" stroke="none"/></mask><path d=" M 142.076 436.227 C 141.179 412.958 152.457 393.604 167.245 393.034 C 182.034 392.464 194.769 410.892 195.666 434.16 C 196.563 457.429 185.285 476.783 170.497 477.353 C 155.708 477.923 142.973 459.495 142.076 436.227 Z " fill="rgb(0,35,91)"/><path d=" M 142.076 436.227 C 141.179 412.958 152.457 393.604 167.245 393.034 C 182.034 392.464 194.769 410.892 195.666 434.16 C 196.563 457.429 185.285 476.783 170.497 477.353 C 155.708 477.923 142.973 459.495 142.076 436.227 Z " fill="rgb(0,35,91)" mask="url(#_mask_aeInTGMACLDzUMzGGCDSnD7NubMKLHDb)" vector-effect="non-scaling-stroke" stroke-width="6" stroke="rgb(255,255,255)" stroke-linejoin="miter" stroke-linecap="square" stroke-miterlimit="3"/><mask id="_mask_biGJ1kY94IKefst2ta5MziwIMfRTEp8r"><path d=" M 208.582 435.279 C 219.771 414.931 239.353 404.184 252.285 411.295 C 265.217 418.406 266.633 440.698 255.445 461.046 C 244.257 481.394 224.675 492.14 211.743 485.03 C 198.81 477.919 197.394 455.626 208.582 435.279 Z " fill="white" stroke="none"/></mask><path d=" M 208.582 435.279 C 219.771 414.931 239.353 404.184 252.285 411.295 C 265.217 418.406 266.633 440.698 255.445 461.046 C 244.257 481.394 224.675 492.14 211.743 485.03 C 198.81 477.919 197.394 455.626 208.582 435.279 Z " fill="rgb(0,35,91)"/><path d=" M 208.582 435.279 C 219.771 414.931 239.353 404.184 252.285 411.295 C 265.217 418.406 266.633 440.698 255.445 461.046 C 244.257 481.394 224.675 492.14 211.743 485.03 C 198.81 477.919 197.394 455.626 208.582 435.279 Z " fill="rgb(0,35,91)" mask="url(#_mask_biGJ1kY94IKefst2ta5MziwIMfRTEp8r)" vector-effect="non-scaling-stroke" stroke-width="6" stroke="rgb(255,255,255)" stroke-linejoin="miter" stroke-linecap="square" stroke-miterlimit="3"/><mask id="_mask_Ciq1MHqZRQBACZIFOkqkneEfujPmxmtY"><path d=" M 249.402 487.552 C 263.209 470.517 283.207 463.812 294.034 472.587 C 304.86 481.362 302.44 502.315 288.634 519.35 C 274.827 536.384 254.829 543.089 244.002 534.314 C 233.176 525.539 235.596 504.586 249.402 487.552 Z " fill="white" stroke="none"/></mask><path d=" M 249.402 487.552 C 263.209 470.517 283.207 463.812 294.034 472.587 C 304.86 481.362 302.44 502.315 288.634 519.35 C 274.827 536.384 254.829 543.089 244.002 534.314 C 233.176 525.539 235.596 504.586 249.402 487.552 Z " fill="rgb(0,35,91)"/><path d=" M 249.402 487.552 C 263.209 470.517 283.207 463.812 294.034 472.587 C 304.86 481.362 302.44 502.315 288.634 519.35 C 274.827 536.384 254.829 543.089 244.002 534.314 C 233.176 525.539 235.596 504.586 249.402 487.552 Z " fill="rgb(0,35,91)" mask="url(#_mask_Ciq1MHqZRQBACZIFOkqkneEfujPmxmtY)" vector-effect="non-scaling-stroke" stroke-width="6" stroke="rgb(255,255,255)" stroke-linejoin="miter" stroke-linecap="square" stroke-miterlimit="3"/></g><mask id="_mask_20T0tqYh8aKdcBVJckvXqhd3yoiJmFqk"><path d=" M 206.344 614.818 Q 197.446 613.463 159.958 603.419 Q 122.674 593.43 114.653 590.302 C 82.411 577.727 77.691 550.259 104.121 529 Q 104.121 529 128.878 514.493 Q 156.121 489 156.121 489 C 180.301 467.366 208.733 476.485 219.572 509.352 Q 219.621 509.5 229.626 539.414 Q 243.121 566 243.428 566.708 C 257.174 598.469 240.558 620.026 206.344 614.818 Z " fill="white" stroke="none"/></mask><path d=" M 206.344 614.818 Q 197.446 613.463 159.958 603.419 Q 122.674 593.43 114.653 590.302 C 82.411 577.727 77.691 550.259 104.121 529 Q 104.121 529 128.878 514.493 Q 156.121 489 156.121 489 C 180.301 467.366 208.733 476.485 219.572 509.352 Q 219.621 509.5 229.626 539.414 Q 243.121 566 243.428 566.708 C 257.174 598.469 240.558 620.026 206.344 614.818 Z " fill="rgb(0,35,91)"/><path d=" M 206.344 614.818 Q 197.446 613.463 159.958 603.419 Q 122.674 593.43 114.653 590.302 C 82.411 577.727 77.691 550.259 104.121 529 Q 104.121 529 128.878 514.493 Q 156.121 489 156.121 489 C 180.301 467.366 208.733 476.485 219.572 509.352 Q 219.621 509.5 229.626 539.414 Q 243.121 566 243.428 566.708 C 257.174 598.469 240.558 620.026 206.344 614.818 Z " fill="rgb(0,35,91)" mask="url(#_mask_20T0tqYh8aKdcBVJckvXqhd3yoiJmFqk)" vector-effect="non-scaling-stroke" stroke-width="6" stroke="rgb(255,255,255)" stroke-linejoin="miter" stroke-linecap="square" stroke-miterlimit="3"/><clipPath id="_clipPath_fEKejqbjqXBf8IzGKadPuncwO1F0yons"><path d=" M 206.344 614.818 Q 197.446 613.463 159.958 603.419 Q 122.674 593.43 114.653 590.302 C 82.411 577.727 77.691 550.259 104.121 529 Q 104.121 529 128.878 514.493 Q 156.121 489 156.121 489 C 180.301 467.366 208.733 476.485 219.572 509.352 Q 219.621 509.5 229.626 539.414 Q 243.121 566 243.428 566.708 C 257.174 598.469 240.558 620.026 206.344 614.818 Z " fill="rgb(0,35,91)"/><path d=" M 206.344 614.818 Q 197.446 613.463 159.958 603.419 Q 122.674 593.43 114.653 590.302 C 82.411 577.727 77.691 550.259 104.121 529 Q 104.121 529 128.878 514.493 Q 156.121 489 156.121 489 C 180.301 467.366 208.733 476.485 219.572 509.352 Q 219.621 509.5 229.626 539.414 Q 243.121 566 243.428 566.708 C 257.174 598.469 240.558 620.026 206.344 614.818 Z " fill="rgb(0,35,91)" mask="url(#_mask_20T0tqYh8aKdcBVJckvXqhd3yoiJmFqk)" vector-effect="non-scaling-stroke" stroke-width="6" stroke="rgb(255,255,255)" stroke-linejoin="miter" stroke-linecap="square" stroke-miterlimit="3"/></clipPath><g clip-path="url(#_clipPath_fEKejqbjqXBf8IzGKadPuncwO1F0yons)"><path d=" M 140.784 538.884 L 132.04 531.189 L 120.744 534.029 L 125.361 523.335 L 119.169 513.469 L 130.766 514.556 L 138.235 505.619 L 140.786 516.984 L 151.594 521.326 L 141.573 527.263 L 140.784 538.884 L 140.784 538.884 L 140.784 538.884 L 140.784 538.884 L 140.784 538.884 L 140.784 538.884 L 140.784 538.884 L 140.784 538.884 L 140.784 538.884 L 140.784 538.884 L 140.784 538.884 Z  M 155.631 579.111 L 146.887 571.416 L 135.591 574.256 L 140.208 563.562 L 134.016 553.696 L 145.613 554.783 L 153.083 545.845 L 155.633 557.211 L 166.441 561.553 L 156.42 567.49 L 155.631 579.111 L 155.631 579.111 L 155.631 579.111 L 155.631 579.111 L 155.631 579.111 L 155.631 579.111 L 155.631 579.111 L 155.631 579.111 L 155.631 579.111 L 155.631 579.111 L 155.631 579.111 Z  M 117.125 594.093 L 108.381 586.398 L 97.085 589.238 L 101.702 578.544 L 95.51 568.678 L 107.107 569.765 L 114.577 560.827 L 117.127 572.192 L 127.935 576.535 L 117.915 582.472 L 117.125 594.093 L 117.125 594.093 L 117.125 594.093 L 117.125 594.093 L 117.125 594.093 L 117.125 594.093 L 117.125 594.093 L 117.125 594.093 L 117.125 594.093 L 117.125 594.093 Z  M 103.338 554.457 L 94.595 546.761 L 83.299 549.601 L 87.916 538.907 L 81.724 529.042 L 93.321 530.128 L 100.79 521.191 L 103.341 532.556 L 114.149 536.898 L 104.128 542.836 L 103.338 554.457 L 103.338 554.457 L 103.338 554.457 L 103.338 554.457 L 103.338 554.457 L 103.338 554.457 L 103.338 554.457 L 103.338 554.457 L 103.338 554.457 Z  M 167.983 620.078 L 159.24 612.382 L 147.943 615.222 L 152.56 604.529 L 146.369 594.663 L 157.966 595.749 L 165.435 586.812 L 167.985 598.177 L 178.794 602.519 L 168.773 608.457 L 167.983 620.078 L 167.983 620.078 L 167.983 620.078 L 167.983 620.078 L 167.983 620.078 L 167.983 620.078 L 167.983 620.078 L 167.983 620.078 Z  M 229.96 639.302 L 221.217 631.606 L 209.921 634.446 L 214.537 623.752 L 208.346 613.887 L 219.943 614.973 L 227.412 606.036 L 229.963 617.401 L 240.771 621.743 L 230.75 627.681 L 229.96 639.302 L 229.96 639.302 L 229.96 639.302 L 229.96 639.302 L 229.96 639.302 L 229.96 639.302 L 229.96 639.302 Z  M 179.695 523.642 L 170.951 515.946 L 159.655 518.786 L 164.272 508.093 L 158.08 498.227 L 169.677 499.313 L 177.147 490.376 L 179.697 501.741 L 190.505 506.083 L 180.484 512.021 L 179.695 523.642 L 179.695 523.642 L 179.695 523.642 L 179.695 523.642 L 179.695 523.642 L 179.695 523.642 Z  M 219.729 508.93 L 210.985 501.234 L 199.689 504.074 L 204.306 493.38 L 198.114 483.515 L 209.711 484.601 L 217.181 475.664 L 219.731 487.029 L 230.539 491.371 L 220.518 497.309 L 219.729 508.93 L 219.729 508.93 L 219.729 508.93 L 219.729 508.93 L 219.729 508.93 Z  M 192.421 564.736 L 183.677 557.041 L 172.381 559.881 L 176.998 549.187 L 170.806 539.322 L 182.403 540.408 L 189.873 531.471 L 192.423 542.836 L 203.231 547.178 L 193.21 553.115 L 192.421 564.736 L 192.421 564.736 L 192.421 564.736 L 192.421 564.736 Z  M 230.334 550.024 L 221.59 542.329 L 210.294 545.169 L 214.911 534.475 L 208.719 524.609 L 220.316 525.696 L 227.786 516.758 L 230.336 528.124 L 241.144 532.466 L 231.123 538.403 L 230.334 550.024 L 230.334 550.024 L 230.334 550.024 Z  M 249.423 588.928 L 240.679 581.232 L 229.383 584.072 L 234 573.379 L 227.808 563.513 L 239.405 564.599 L 246.875 555.662 L 249.425 567.027 L 260.233 571.369 L 250.213 577.307 L 249.423 588.928 L 249.423 588.928 Z  M 208.859 604.505 L 200.115 596.81 L 188.819 599.65 L 193.436 588.956 L 187.244 579.09 L 198.841 580.177 L 206.31 571.24 L 208.861 582.605 L 219.669 586.947 L 209.648 592.884 L 208.859 604.505 Z " fill-rule="evenodd" fill="rgb(255,255,255)"/></g><path d=" M 206.344 614.818 Q 197.446 613.463 159.958 603.419 Q 122.674 593.43 114.653 590.302 C 82.411 577.727 77.691 550.259 104.121 529 Q 104.121 529 128.878 514.493 Q 156.121 489 156.121 489 C 180.301 467.366 208.733 476.485 219.572 509.352 Q 219.621 509.5 229.626 539.414 Q 243.121 566 243.428 566.708 C 257.174 598.469 240.558 620.026 206.344 614.818 Z " fill="transparent" mask="url(#_mask_20T0tqYh8aKdcBVJckvXqhd3yoiJmFqk)" vector-effect="non-scaling-stroke" stroke-width="6" stroke="rgb(255,255,255)" stroke-linejoin="miter" stroke-linecap="square" stroke-miterlimit="3"/><g><path d=" M 117.873 476.5 L 111.205 470.632 L 102.591 472.797 L 106.112 464.643 L 101.39 457.119 L 110.234 457.948 L 115.93 451.132 L 117.875 459.799 L 126.117 463.11 L 118.475 467.638 L 117.873 476.5 Z " fill="rgb(235,235,235)"/><path d=" M 174.041 445.018 L 167.101 438.91 L 158.135 441.164 L 161.8 432.676 L 156.885 424.846 L 166.09 425.708 L 172.018 418.614 L 174.043 427.635 L 182.621 431.081 L 174.668 435.794 L 174.041 445.018 Z " fill="rgb(235,235,235)"/><path d=" M 237.854 463.11 L 230.407 456.556 L 220.786 458.975 L 224.718 449.866 L 219.444 441.463 L 229.322 442.389 L 235.684 434.776 L 237.856 444.456 L 247.062 448.155 L 238.527 453.212 L 237.854 463.11 Z " fill="rgb(235,235,235)"/><path d=" M 274.541 517.145 L 267.601 511.037 L 258.635 513.291 L 262.3 504.803 L 257.385 496.973 L 266.59 497.835 L 272.518 490.742 L 274.543 499.762 L 283.121 503.209 L 275.168 507.921 L 274.541 517.145 Z " fill="rgb(235,235,235)"/></g></g></svg>